<?xml version="1.0" standalone="no"?>
<!DOCTYPE svg PUBLIC "-//W3C//DTD SVG 20010904//EN"
 "http://www.w3.org/TR/2001/REC-SVG-20010904/DTD/svg10.dtd">
<svg version="1.0" xmlns="http://www.w3.org/2000/svg"
 width="512.000000pt" height="512.000000pt" viewBox="0 0 512.000000 512.000000"
 preserveAspectRatio="xMidYMid meet">
<metadata>
Created by potrace 1.14, written by Peter Selinger 2001-2017
</metadata>
<g transform="translate(0.000000,512.000000) scale(0.100000,-0.100000)"
fill="#000000" stroke="none">
<path d="M1776 5072 c-4 -11 -14 -23 -22 -26 -8 -3 -13 -10 -9 -15 3 -5 1 -12
-5 -16 -5 -3 -10 -1 -10 6 0 7 -3 9 -7 5 -5 -4 -8 -12 -8 -18 0 -6 -8 -12 -18
-14 -9 -1 -15 1 -13 5 3 4 -4 7 -14 7 -15 0 -17 -3 -7 -15 10 -12 9 -14 -7 -8
-10 4 -25 2 -34 -5 -13 -11 -15 -11 -8 2 4 8 0 6 -8 -4 -16 -20 -16 -20 -17 0
0 17 -1 16 -9 -3 -5 -13 -14 -23 -20 -23 -5 0 -10 -7 -10 -16 0 -8 -4 -12 -10
-9 -5 3 -10 1 -10 -5 0 -7 -7 -10 -14 -7 -10 4 -13 1 -10 -7 4 -9 -2 -13 -19
-11 -15 2 -35 -7 -51 -21 -14 -14 -26 -20 -26 -14 0 6 -4 9 -10 5 -5 -3 -7
-12 -3 -21 3 -9 0 -14 -8 -12 -9 2 -13 -5 -12 -19 2 -17 -1 -21 -14 -16 -10 4
-14 2 -10 -4 4 -6 -1 -14 -10 -17 -15 -6 -15 -8 -3 -16 12 -8 11 -10 -5 -10
-16 0 -21 -6 -20 -27 0 -16 -4 -31 -9 -35 -6 -4 -5 -12 3 -21 10 -13 9 -17 -6
-26 -10 -6 -14 -11 -8 -11 5 0 -1 -7 -13 -16 -12 -8 -19 -20 -16 -26 4 -6 2
-8 -3 -5 -10 7 -28 -20 -24 -36 0 -4 -6 -10 -14 -13 -8 -4 -15 -10 -15 -16 0
-5 5 -6 11 -2 6 3 4 -5 -5 -19 -13 -20 -14 -26 -4 -30 10 -4 10 -6 0 -6 -10
-1 -10 -6 -2 -21 8 -15 8 -20 -2 -20 -9 0 -9 -3 2 -10 11 -7 11 -10 2 -10 -8
0 -10 -5 -6 -12 5 -8 2 -9 -9 -5 -9 3 -19 1 -23 -5 -5 -7 -2 -8 6 -3 10 6 12
4 7 -9 -4 -10 -7 -20 -7 -22 0 -3 -4 -2 -10 1 -5 3 -10 1 -10 -5 0 -6 -4 -9
-9 -5 -6 3 -8 -4 -6 -15 3 -15 -3 -24 -20 -30 -14 -5 -25 -12 -25 -14 0 -3 7
-3 15 0 21 9 19 -2 -7 -27 -13 -12 -18 -19 -12 -16 7 4 15 0 18 -9 4 -10 2
-13 -7 -9 -6 4 -4 0 6 -8 14 -11 15 -16 5 -20 -8 -4 -7 -6 5 -6 9 -1 17 -6 17
-12 0 -5 -4 -7 -10 -4 -5 3 -10 1 -10 -4 0 -6 7 -11 15 -11 9 0 12 -6 8 -17
-5 -11 -3 -14 6 -8 10 6 10 3 0 -16 -7 -13 -13 -36 -12 -51 0 -16 -3 -28 -7
-28 -4 0 -11 -7 -14 -16 -6 -15 -4 -15 10 -3 16 13 16 12 8 -6 -12 -25 -11
-54 5 -82 8 -17 8 -24 -1 -29 -7 -5 -8 -3 -3 6 5 8 4 11 -3 6 -6 -4 -9 -13 -6
-21 4 -8 11 -12 16 -8 7 4 9 -4 6 -21 -4 -18 -1 -26 8 -26 19 0 17 -10 -3 -26
-17 -13 -17 -14 0 -8 20 7 20 4 7 -30 -7 -19 -6 -26 3 -26 8 0 7 -3 -3 -9 -8
-6 -18 -7 -24 -4 -5 3 -6 1 -2 -6 4 -6 11 -9 15 -7 3 3 7 -4 7 -15 0 -10 -5
-19 -11 -19 -5 0 -3 -5 5 -10 12 -7 12 -10 1 -10 -7 0 -11 -6 -8 -14 3 -7 0
-19 -6 -25 -8 -8 -8 -11 1 -11 6 0 9 -6 6 -14 -3 -8 -13 -13 -22 -10 -9 3 -7
-1 5 -7 28 -14 29 -25 6 -38 -10 -6 -12 -11 -5 -11 6 0 12 -10 12 -21 0 -19
-2 -20 -17 -8 -17 13 -17 12 -4 -4 18 -23 22 -56 9 -81 -7 -12 -7 -16 0 -12 5
3 12 -1 15 -9 4 -10 1 -12 -10 -8 -12 5 -14 3 -7 -8 5 -8 9 -45 9 -84 0 -38 4
-76 9 -84 6 -10 4 -12 -12 -7 -12 4 -23 2 -28 -5 -4 -7 -3 -9 4 -6 16 11 41
-3 35 -19 -3 -8 -10 -11 -16 -7 -6 4 -7 1 -3 -6 5 -7 15 -10 24 -6 14 5 14 3
-1 -13 -9 -10 -17 -23 -17 -28 0 -5 5 -2 10 6 7 11 10 5 10 -23 0 -28 -3 -36
-12 -31 -7 4 -4 -2 6 -14 14 -16 15 -22 6 -22 -11 0 -11 -3 -2 -12 14 -14 16
-32 4 -24 -5 3 -6 -8 -4 -25 2 -16 8 -29 11 -29 4 0 8 -7 8 -15 0 -8 -7 -15
-14 -15 -8 0 -12 -4 -9 -9 4 -5 -4 -7 -15 -4 -21 6 -21 6 2 19 l24 12 -25 0
c-32 0 -49 5 -79 21 -18 10 -22 10 -16 0 6 -8 4 -11 -6 -7 -16 6 -41 -16 -31
-28 4 -4 1 -4 -6 0 -9 5 -15 1 -19 -13 -3 -12 -10 -21 -17 -21 -6 0 -4 -5 4
-10 9 -6 10 -10 3 -10 -6 0 -10 -9 -8 -20 2 -11 -1 -23 -7 -26 -7 -4 -8 -2 -4
4 4 7 2 12 -3 12 -14 0 -14 -17 -2 -25 6 -3 7 -15 4 -28 -5 -21 -5 -41 1 -82
1 -11 -2 -26 -7 -32 -6 -9 -5 -13 3 -13 10 0 10 -3 1 -14 -9 -11 -9 -16 0 -22
8 -5 9 -3 4 6 -5 8 -4 11 2 7 5 -3 8 -21 7 -39 -1 -18 2 -39 8 -45 7 -9 6 -18
-3 -30 -10 -11 -10 -14 -1 -9 6 4 13 2 13 -3 1 -6 2 -17 3 -23 1 -7 -7 -21
-18 -31 -12 -10 -16 -16 -9 -13 18 9 44 -5 42 -23 -3 -32 1 -42 14 -35 9 6 9
4 -1 -8 -9 -11 -10 -18 -2 -23 6 -3 8 -10 5 -15 -3 -5 -2 -11 3 -14 12 -7 8
-72 -4 -66 -5 3 -9 13 -8 22 0 9 -3 15 -8 12 -4 -3 -8 -12 -8 -20 0 -17 -12
-18 -29 -2 -11 11 -13 10 -7 0 5 -9 -1 -12 -23 -10 -17 1 -31 6 -31 11 0 4 -5
5 -10 2 -6 -4 -8 -11 -5 -16 3 -5 -1 -6 -9 -3 -9 3 -13 11 -10 16 4 6 -5 3
-18 -6 -14 -9 -27 -13 -31 -10 -3 3 -18 -7 -33 -22 -14 -16 -30 -28 -35 -27
-4 2 -6 -7 -4 -18 2 -12 -2 -22 -11 -26 -13 -5 -13 -7 -2 -14 11 -7 10 -11 -2
-19 -13 -9 -13 -10 0 -10 12 0 12 -2 1 -9 -9 -6 -10 -10 -2 -16 9 -5 9 -11 -1
-23 -10 -12 -10 -14 0 -8 6 4 12 3 12 -3 0 -5 -5 -13 -10 -16 -6 -3 -10 -12
-10 -18 0 -8 3 -7 9 2 6 9 10 2 13 -22 3 -25 1 -33 -7 -27 -7 6 -11 2 -11 -10
0 -10 4 -16 8 -14 4 3 7 -5 7 -18 -2 -30 4 -51 16 -60 6 -5 3 -8 -7 -8 -9 0
-20 -5 -24 -12 -4 -7 -3 -8 4 -4 7 4 12 4 13 -1 0 -4 2 -19 5 -32 4 -21 2 -22
-13 -10 -10 7 -7 1 7 -15 14 -15 21 -27 15 -26 -21 5 -29 -1 -15 -10 18 -11
22 -160 5 -172 -6 -5 -3 -8 7 -8 11 0 15 -5 12 -15 -4 -8 -11 -12 -17 -8 -6 4
0 -9 13 -27 13 -18 19 -30 12 -26 -7 4 -12 2 -12 -4 0 -6 -6 -8 -12 -5 -7 4
-6 1 2 -7 9 -7 14 -25 12 -42 -3 -21 0 -26 10 -20 10 6 11 5 2 -7 -14 -17 -15
-50 -2 -66 6 -7 5 -14 -3 -18 -8 -6 -7 -10 2 -16 10 -6 10 -9 2 -9 -9 0 -10
-7 -3 -26 13 -32 12 -37 0 -29 -5 3 -10 2 -10 -4 0 -5 4 -11 9 -13 5 -1 11
-33 14 -70 4 -58 3 -66 -12 -62 -13 5 -13 4 2 -6 19 -12 24 -35 5 -24 -10 6
-10 5 -1 -8 7 -8 10 -18 6 -21 -3 -4 0 -13 6 -21 8 -10 9 -16 1 -21 -5 -3 -10
-1 -10 6 0 7 -3 9 -6 6 -4 -4 -2 -13 4 -20 7 -8 9 -17 5 -21 -4 -4 -1 -11 7
-16 10 -7 11 -10 3 -10 -7 0 -13 -11 -13 -25 0 -14 -5 -25 -11 -25 -5 0 -7 -5
-3 -12 5 -7 2 -9 -8 -6 -8 4 -15 0 -15 -8 0 -7 5 -11 11 -8 6 3 3 -1 -6 -9
-10 -8 -15 -17 -11 -20 3 -4 -1 -7 -11 -7 -9 0 -14 -5 -11 -10 3 -6 1 -10 -5
-10 -6 0 -8 -4 -5 -10 3 -5 -2 -10 -12 -10 -15 0 -16 -2 -3 -10 11 -7 11 -10
2 -10 -7 0 -10 -4 -7 -10 3 -5 0 -7 -9 -4 -11 4 -14 0 -11 -15 2 -12 -3 -25
-13 -31 -9 -5 -12 -10 -5 -10 16 0 4 -40 -13 -40 -17 0 -18 -17 -1 -23 9 -3 9
-7 0 -19 -7 -8 -10 -18 -6 -22 4 -4 -1 -4 -12 0 -18 7 -19 6 -5 -11 8 -10 10
-16 5 -13 -6 4 -17 -3 -25 -15 -11 -19 -11 -20 1 -10 12 10 15 8 15 -7 0 -10
-4 -17 -7 -14 -4 2 -10 0 -13 -5 -4 -5 -1 -13 5 -17 8 -5 4 -13 -12 -26 -13
-11 -18 -17 -11 -13 6 3 12 1 12 -4 0 -6 -4 -11 -9 -11 -6 0 -8 -9 -6 -20 2
-11 -2 -20 -8 -20 -7 0 -6 -4 3 -10 11 -7 11 -10 2 -10 -7 0 -12 -8 -10 -17 2
-11 -2 -17 -11 -15 -12 3 -12 0 -1 -12 7 -9 8 -16 2 -16 -5 0 -8 -10 -4 -22 3
-14 2 -19 -6 -14 -7 4 -12 3 -12 -3 0 -5 5 -13 10 -16 8 -5 7 -11 -1 -21 -6
-8 -8 -14 -5 -14 4 0 2 -8 -3 -18 -7 -13 -6 -23 2 -32 9 -10 9 -11 0 -6 -7 4
-12 -1 -12 -11 -1 -40 -5 -53 -15 -53 -6 0 -4 -5 4 -10 12 -8 12 -10 1 -10 -8
0 -11 -3 -8 -7 4 -3 2 -12 -3 -18 -7 -9 -6 -16 5 -25 8 -7 15 -9 15 -4 0 8 36
10 87 5 7 -1 10 -8 6 -18 -4 -12 1 -9 15 7 13 15 21 20 22 11 0 -11 3 -11 15
-1 11 9 15 9 15 1 0 -8 5 -9 19 -2 10 6 21 7 25 4 12 -12 36 -12 36 0 0 8 3 7
9 -2 6 -9 11 -10 15 -2 5 8 13 8 27 1 13 -8 19 -7 19 0 0 6 5 8 13 3 20 -12
37 -12 37 0 0 7 5 5 10 -3 7 -11 10 -11 10 -2 0 7 5 10 10 7 6 -4 7 -11 4 -17
-4 -7 -2 -8 4 -4 6 4 20 2 31 -4 14 -7 22 -7 27 1 4 8 9 7 15 -2 7 -11 9 -11
9 1 0 13 1 13 10 0 9 -13 11 -13 21 0 8 11 12 12 16 3 2 -7 9 -13 14 -13 6 0
7 6 3 13 -6 9 -4 9 8 -1 13 -10 17 -10 22 0 5 10 7 10 12 0 3 -6 10 -12 15
-12 6 0 7 6 3 13 -6 9 -4 9 8 -1 13 -10 17 -10 22 0 5 10 7 10 12 1 3 -7 10
-13 15 -13 6 0 7 6 3 13 -6 9 -4 9 8 -1 13 -10 17 -10 22 0 5 10 7 10 12 1 3
-7 10 -13 15 -13 6 0 7 6 3 13 -6 9 -4 9 8 -1 13 -10 17 -10 22 0 5 10 7 10
12 1 3 -7 10 -13 15 -13 6 0 7 6 3 13 -6 9 -4 9 8 -1 13 -10 17 -10 22 0 5 10
7 10 12 1 3 -7 10 -13 15 -13 6 0 7 6 3 13 -6 9 -4 9 8 -1 13 -10 17 -10 22 0
5 10 7 10 12 1 3 -7 10 -13 15 -13 6 0 7 6 3 13 -6 9 -4 9 8 -1 13 -10 17 -10
22 0 5 10 7 10 12 1 3 -7 10 -13 15 -13 6 0 7 6 3 13 -6 9 -4 9 8 -1 13 -10
17 -10 22 0 5 10 7 10 12 1 3 -7 10 -13 15 -13 6 0 7 6 3 13 -6 9 -4 9 8 -1
13 -10 17 -10 22 0 5 10 7 10 12 1 3 -7 10 -13 15 -13 6 0 7 6 3 13 -6 9 -4 9
8 -1 13 -10 17 -10 22 0 5 10 7 10 12 1 3 -7 10 -13 15 -13 6 0 7 6 3 13 -6 9
-4 9 8 -1 13 -10 17 -10 22 0 5 10 7 10 12 1 3 -7 10 -13 15 -13 6 0 7 6 3 13
-6 9 -4 9 8 -1 13 -10 17 -10 22 0 5 10 7 10 12 1 3 -7 10 -13 15 -13 6 0 7 6
3 13 -6 9 -4 9 8 -1 13 -10 17 -10 22 0 5 10 7 10 12 1 3 -7 10 -13 15 -13 6
0 7 6 3 13 -6 9 -4 9 8 -1 13 -10 17 -10 22 0 5 10 7 10 12 1 3 -7 10 -13 15
-13 6 0 7 6 3 13 -6 9 -4 9 8 -1 13 -10 17 -10 22 0 5 10 7 10 12 1 3 -7 10
-13 15 -13 6 0 7 6 3 13 -6 9 -4 9 8 -1 13 -10 17 -10 22 0 5 10 7 10 12 1 3
-7 10 -13 15 -13 6 0 7 6 3 13 -6 9 -4 9 8 -1 13 -10 17 -10 22 0 5 10 7 10
12 1 3 -7 10 -13 15 -13 6 0 7 6 3 13 -6 9 -4 9 8 -1 13 -10 17 -10 22 0 5 10
7 10 12 1 3 -7 10 -13 15 -13 6 0 7 6 3 13 -6 9 -4 9 8 -1 13 -10 17 -10 22 0
5 10 7 10 12 1 3 -7 10 -13 15 -13 6 0 7 6 3 13 -6 9 -4 9 8 -1 13 -10 17 -10
22 0 5 10 7 10 12 1 3 -7 10 -13 15 -13 6 0 7 6 3 13 -6 9 -4 9 8 -1 13 -10
17 -10 22 0 5 10 7 10 12 1 3 -7 10 -13 15 -13 6 0 7 6 3 13 -6 9 -4 9 8 -1
13 -10 17 -10 22 0 5 10 7 10 12 1 3 -7 10 -13 15 -13 6 0 7 6 3 13 -6 9 -4 9
8 -1 13 -10 17 -10 22 0 5 10 7 10 12 1 3 -7 10 -13 15 -13 6 0 7 6 3 13 -6 9
-4 9 8 -1 13 -10 17 -10 22 0 5 10 7 10 12 1 3 -7 10 -13 15 -13 6 0 7 6 3 13
-6 9 -4 9 8 -1 13 -10 17 -10 22 0 5 10 7 10 12 1 3 -7 10 -13 15 -13 6 0 7 6
3 13 -6 9 -4 9 8 -1 13 -10 17 -10 22 0 5 10 7 10 12 1 3 -7 10 -13 15 -13 6
0 7 6 3 13 -6 9 -4 9 8 -1 13 -10 17 -10 22 0 5 10 7 10 12 1 3 -7 10 -13 15
-13 6 0 7 6 3 13 -6 9 -4 9 8 -1 13 -10 17 -10 22 0 5 10 7 10 12 1 3 -7 10
-13 15 -13 6 0 7 6 3 13 -6 9 -4 9 8 -1 13 -10 17 -10 22 0 5 10 7 10 12 1 3
-7 10 -13 15 -13 6 0 7 6 3 13 -6 9 -4 9 8 -1 13 -10 17 -10 22 0 5 10 7 10
12 1 3 -7 10 -13 15 -13 6 0 7 6 3 13 -6 9 -4 9 8 -1 13 -10 17 -10 22 0 5 10
7 10 12 1 3 -7 10 -13 15 -13 6 0 7 6 3 13 -6 9 -4 9 8 -1 13 -10 17 -10 22 0
5 10 7 10 12 1 3 -7 10 -13 15 -13 6 0 7 6 3 13 -6 9 -4 9 8 -1 13 -10 17 -10
22 0 5 10 7 10 12 1 3 -7 10 -13 15 -13 6 0 7 6 3 13 -6 9 -4 9 8 -1 13 -10
17 -10 22 0 5 10 7 10 12 1 3 -7 10 -13 15 -13 6 0 7 6 3 13 -6 9 -4 9 8 -1
13 -10 17 -10 22 0 5 10 7 10 12 1 3 -7 10 -13 15 -13 6 0 7 6 3 13 -6 9 -4 9
8 -1 13 -10 17 -10 22 0 5 10 7 10 12 1 3 -7 10 -13 15 -13 6 0 7 6 3 13 -6 9
-4 9 8 -1 13 -10 17 -10 22 0 5 10 7 10 12 1 3 -7 10 -13 15 -13 6 0 7 6 3 13
-6 9 -4 9 8 -1 13 -10 17 -10 22 0 5 10 7 10 12 1 3 -7 10 -13 15 -13 6 0 7 6
3 13 -6 9 -4 9 8 -1 13 -10 17 -10 22 0 5 10 7 10 12 1 3 -7 10 -13 15 -13 6
0 7 6 3 13 -6 9 -4 9 8 -1 13 -10 17 -10 22 0 5 10 7 10 12 1 3 -7 10 -13 15
-13 6 0 7 6 3 13 -6 9 -4 9 8 -1 13 -10 17 -10 22 0 5 10 7 10 12 1 3 -7 10
-13 15 -13 6 0 7 6 3 13 -6 9 -4 9 8 -1 13 -10 17 -10 22 0 5 10 7 10 12 1 3
-7 10 -13 15 -13 6 0 7 6 3 13 -6 9 -4 9 8 -1 13 -10 17 -10 22 0 5 10 7 10
12 1 3 -7 10 -13 15 -13 6 0 7 6 3 13 -6 9 -4 9 8 -1 13 -10 17 -10 22 0 5 10
7 10 12 1 3 -7 10 -13 15 -13 6 0 7 6 3 13 -6 9 -4 9 8 -1 13 -10 17 -10 22 0
5 10 7 10 12 1 3 -7 10 -13 15 -13 6 0 7 6 3 13 -6 9 -4 9 8 -1 13 -10 17 -10
22 0 5 10 7 10 12 1 3 -7 10 -13 15 -13 6 0 7 6 3 13 -6 9 -4 9 8 -1 13 -10
17 -10 22 0 5 10 7 10 12 1 3 -7 10 -13 15 -13 6 0 7 6 3 13 -6 9 -4 9 8 -1
13 -10 17 -10 22 0 5 10 7 10 12 1 3 -7 10 -13 15 -13 6 0 7 6 3 13 -6 9 -4 9
8 -1 13 -10 17 -10 22 0 5 10 7 10 12 1 3 -7 10 -13 15 -13 6 0 7 6 3 13 -6 9
-4 9 8 -1 13 -10 17 -10 21 0 4 10 8 10 16 -2 10 -13 11 -13 11 0 0 13 1 13
10 0 9 -13 11 -13 20 0 9 13 11 13 20 0 9 -13 10 -13 10 0 0 13 1 13 10 0 9
-13 11 -13 20 0 8 13 11 12 25 -5 9 -11 14 -14 10 -7 -3 6 -3 12 2 13 4 0 19
2 32 5 13 2 31 -1 40 -8 12 -10 12 -8 -2 8 -17 21 -17 21 7 19 14 -2 30 -6 35
-10 6 -3 11 -1 11 5 0 6 5 8 13 3 20 -12 37 -12 37 0 0 8 3 7 9 -2 5 -8 11 -9
15 -3 3 5 17 7 31 5 13 -3 22 -9 20 -13 -3 -5 0 -12 7 -16 7 -4 10 -4 6 1 -4
4 -3 14 3 22 9 10 15 10 25 2 11 -9 14 -8 14 1 0 9 4 9 13 2 7 -6 18 -8 24 -4
15 9 55 8 71 -2 7 -4 12 -2 12 4 0 7 7 10 15 6 12 -4 13 -2 7 12 -5 9 -7 23
-4 31 3 9 0 11 -8 6 -9 -6 -9 -3 0 15 10 18 9 21 -1 15 -8 -6 -11 -4 -6 7 3 9
0 21 -6 27 -8 8 -6 11 9 11 18 1 18 1 1 11 -12 7 -16 17 -11 31 3 12 2 18 -3
15 -6 -4 -10 7 -11 24 0 17 -5 36 -9 42 -13 17 -9 42 6 39 7 -1 10 2 6 8 -3 6
-11 8 -16 5 -8 -6 -10 0 -12 43 -1 9 -7 21 -15 25 -11 7 -10 13 5 30 10 12 14
19 9 15 -13 -11 -36 15 -25 29 7 7 6 14 -1 18 -8 5 -8 11 1 21 10 12 9 13 -4
8 -12 -4 -14 -1 -10 15 3 12 1 21 -6 21 -6 0 -11 13 -11 29 0 16 -5 31 -10 33
-6 2 -12 12 -14 23 -9 43 -12 50 -33 74 -12 14 -20 28 -18 32 3 4 -2 10 -11
13 -8 3 -13 10 -9 16 3 5 1 15 -5 22 -62 73 -62 76 -44 122 6 15 4 17 -7 11
-11 -6 -11 -5 -2 5 6 7 9 19 6 28 -5 11 -3 13 7 7 9 -6 11 -4 5 4 -4 7 -8 26
-9 42 -2 23 1 28 13 24 10 -3 9 0 -3 10 -14 11 -16 15 -5 15 12 0 12 2 -1 10
-12 8 -12 10 5 10 15 0 17 2 6 9 -8 6 -11 16 -6 31 5 15 4 20 -4 16 -7 -5 -9
-1 -5 8 3 9 11 16 18 16 7 0 7 3 1 8 -13 9 -18 35 -5 27 5 -3 10 -2 10 4 0 5
-6 12 -12 14 -10 4 -9 8 2 17 11 8 12 13 3 16 -7 3 -9 12 -6 20 3 7 9 12 13 9
5 -3 12 -1 15 5 4 6 3 10 -2 9 -4 -1 -14 -1 -22 0 -11 1 -11 4 0 18 9 11 10
14 2 9 -9 -5 -11 -2 -7 8 3 9 11 13 18 10 6 -3 2 2 -8 10 -11 9 -16 16 -10 16
5 0 9 22 9 50 -1 28 4 50 10 50 5 0 3 5 -5 10 -8 5 -10 10 -3 10 13 0 12 18
-1 39 -7 11 -5 13 7 8 13 -5 15 -2 7 17 -5 15 -5 27 3 35 8 8 8 11 -1 11 -6 0
-9 6 -6 14 3 8 13 13 22 10 9 -3 7 1 -5 7 -24 13 -29 24 -14 33 4 3 5 24 1 46
-5 29 -4 38 4 31 8 -6 11 -2 11 14 0 18 -3 21 -12 13 -9 -7 -13 -7 -13 0 0 6
4 14 10 17 5 3 8 24 7 46 -3 33 -1 39 12 34 13 -4 13 -3 -1 8 -15 12 -15 14 0
25 9 7 11 10 3 6 -11 -5 -12 -1 -7 20 4 18 3 25 -4 21 -6 -4 -7 2 -1 17 4 13
7 34 6 48 -1 14 3 28 9 32 7 5 6 8 -3 8 -11 0 -9 4 5 15 15 11 16 14 4 15 -9
0 -16 9 -16 19 0 13 4 17 11 11 7 -6 11 -2 11 10 0 10 -4 16 -8 14 -8 -5 -28
28 -28 46 0 6 5 8 12 4 7 -4 8 -3 4 4 -4 6 -13 9 -20 6 -15 -6 -40 21 -32 34
3 5 -1 9 -9 9 -8 0 -12 -4 -9 -8 2 -4 -10 0 -28 9 -39 19 -60 24 -52 11 3 -5
10 -6 16 -3 6 4 8 2 4 -4 -8 -14 -62 2 -58 17 1 7 -2 10 -8 6 -6 -3 -8 -10 -5
-14 3 -7 -48 -7 -84 -2 -2 1 4 10 13 20 11 12 14 21 7 26 -6 3 -11 11 -11 16
0 6 4 8 9 5 5 -3 12 1 15 10 4 9 2 13 -5 8 -8 -4 -8 0 0 14 6 12 11 25 10 29
-1 4 -1 22 0 38 1 23 3 27 11 15 6 -9 10 -10 10 -3 0 6 -4 15 -10 18 -6 4 -6
13 0 25 6 11 15 29 21 41 7 15 7 19 0 14 -14 -8 -14 1 -1 26 8 13 7 19 0 19
-7 0 -7 6 0 21 7 11 9 23 6 26 -2 3 -1 16 5 30 6 16 6 22 -1 18 -6 -3 -10 -1
-10 4 0 6 5 11 12 11 6 0 9 3 5 6 -3 3 -2 17 3 30 6 15 6 26 -1 30 -6 3 -9 16
-7 27 1 12 -1 28 -6 35 -5 9 -1 18 10 27 18 13 18 13 -1 12 -12 -1 -20 4 -20
13 0 8 -8 21 -18 28 -9 7 -15 18 -12 23 4 5 1 9 -5 9 -6 0 -8 5 -4 13 5 8 2 8
-9 -2 -10 -7 -17 -9 -17 -3 0 12 -64 4 -68 -9 -2 -5 -8 -7 -13 -3 -5 3 -12 -2
-15 -10 -8 -22 -21 -20 -27 3 -3 14 -1 18 9 14 8 -3 14 0 14 6 0 6 -4 11 -10
11 -5 0 -10 7 -10 15 0 8 6 15 13 15 9 0 8 3 -2 9 -9 6 -10 11 -2 15 6 4 11
12 11 17 0 6 -3 8 -7 6 -5 -3 -8 6 -8 19 0 13 4 24 9 24 5 0 6 3 3 7 -4 3 -2
12 5 20 9 11 7 12 -8 7 -18 -5 -18 -5 -1 9 17 14 17 15 0 21 -15 6 -15 8 -3
17 13 8 13 10 0 20 -12 8 -10 10 10 5 22 -4 23 -4 8 8 -17 13 -26 42 -10 32 4
-2 14 5 21 17 11 18 11 20 0 10 -7 -7 -20 -13 -28 -13 -13 0 -14 2 -2 9 7 5
11 13 7 19 -3 6 -1 12 5 14 8 3 6 10 -5 21 -18 18 -8 24 12 7 7 -5 5 -2 -3 7
-12 14 -12 18 3 30 9 8 12 12 5 9 -6 -4 -14 -2 -18 4 -3 5 0 10 7 10 9 0 9 3
-2 10 -8 5 -10 10 -3 10 6 0 9 9 5 22 -3 14 -2 19 6 14 7 -4 12 -2 12 3 0 6
-8 11 -17 11 -15 0 -16 2 -3 10 13 9 13 10 0 10 -13 0 -13 1 0 10 8 5 11 10 6
10 -5 0 -1 10 10 22 15 19 16 20 2 9 -15 -11 -18 -11 -18 1 0 8 5 19 11 25 8
8 7 13 -2 18 -8 6 -10 4 -4 -5 6 -9 4 -11 -4 -5 -8 4 -9 11 -3 17 5 5 7 30 5
56 -3 35 -1 43 6 32 6 -8 11 -10 11 -5 0 6 -5 16 -12 23 -8 8 -8 15 2 27 7 9
9 15 4 14 -21 -4 -28 2 -14 11 13 9 13 11 0 20 -11 7 -11 10 -2 10 9 0 10 5 4
18 -5 9 -7 23 -4 31 3 10 0 11 -9 5 -12 -7 -12 -5 0 9 10 13 10 17 1 17 -10 0
-10 3 0 15 7 8 9 15 4 15 -16 0 -33 47 -21 59 6 6 4 15 -7 26 -9 9 -14 21 -11
26 4 5 1 9 -4 9 -6 0 -11 9 -11 19 0 10 -7 22 -16 25 -13 5 -14 9 -4 21 11 13
10 14 -4 9 -11 -4 -16 -1 -16 10 0 9 -5 16 -11 16 -8 0 -8 4 0 14 10 12 8 13
-8 9 -13 -3 -21 -1 -21 6 0 7 5 9 12 5 7 -4 8 -3 4 4 -4 6 -13 9 -20 6 -8 -3
-17 0 -22 7 -4 7 -3 10 3 6 5 -3 10 0 10 7 0 7 -7 13 -16 12 -9 -1 -15 5 -13
12 1 6 -3 12 -9 12 -5 0 -7 5 -4 10 4 6 10 8 15 5 5 -3 12 0 16 6 4 7 3 9 -3
6 -6 -4 -16 0 -22 7 -9 11 -9 16 0 22 8 4 9 3 5 -4 -5 -8 -1 -10 10 -5 14 5
15 7 1 15 -9 5 -14 15 -11 23 4 8 2 15 -3 15 -4 0 -9 14 -10 32 0 18 -6 34
-11 36 -6 2 -8 10 -5 18 3 8 0 14 -7 14 -6 0 -9 4 -5 9 3 5 -1 16 -9 24 -8 8
-12 17 -9 21 4 3 -1 6 -11 6 -10 0 -14 5 -11 11 4 6 -2 17 -14 25 -12 9 -19
20 -15 25 3 5 0 8 -8 7 -7 -2 -12 3 -10 10 1 6 -2 11 -7 10 -5 -2 -17 6 -26
17 -9 11 -13 14 -9 6 5 -9 3 -12 -4 -7 -7 4 -12 15 -12 24 0 15 -2 15 -10 2
-6 -10 -10 -11 -10 -2 0 6 -7 12 -15 12 -8 0 -15 5 -15 10 0 6 -6 10 -13 10
-7 0 -23 9 -35 20 -12 11 -26 20 -32 20 -5 0 -10 5 -10 12 0 9 -3 9 -12 0 -9
-9 -17 -5 -36 16 -13 15 -21 21 -18 15 10 -17 -6 -16 -30 2 -10 8 -28 15 -39
15 -17 0 -17 2 -5 10 12 8 11 10 -8 10 -12 0 -41 12 -65 27 -23 15 -45 26 -49
25 -5 -1 -8 3 -8 9 0 6 -6 9 -13 6 -7 -3 -19 4 -26 15 -7 11 -18 17 -26 14 -7
-2 -16 2 -19 11 -4 8 -13 13 -21 9 -9 -3 -15 0 -15 9 0 8 -5 15 -11 15 -5 0
-7 -5 -3 -11 3 -6 -5 -3 -19 6 -15 9 -32 13 -39 9 -7 -4 -4 3 7 17 11 13 13
18 5 12 -16 -15 -34 -17 -25 -4 3 5 1 13 -5 16 -6 4 -10 3 -9 -2 3 -18 -2 -27
-9 -16 -4 6 -19 14 -32 16 -14 2 -38 10 -55 16 -16 7 -43 15 -60 16 -16 2 -32
5 -35 6 -3 1 -8 1 -12 0 -5 0 -8 4 -8 10 0 5 -6 7 -12 3 -25 -16 -46 -11 -42
9 3 15 1 17 -11 7 -12 -10 -15 -10 -15 1 0 11 -2 11 -10 -1 -6 -10 -10 -11
-10 -2 0 6 -9 12 -20 12 -11 0 -20 5 -20 11 0 6 -7 9 -15 5 -9 -3 -15 0 -15 9
0 8 -4 15 -10 15 -5 0 -7 -8 -4 -17 3 -10 -2 -7 -10 7 -8 14 -15 20 -16 15 0
-6 -9 -11 -20 -11 -20 0 -27 10 -12 19 9 5 -13 -1 -35 -10 -12 -5 -14 -3 -8 7
5 9 4 11 -4 6 -6 -4 -24 0 -39 9 -15 10 -21 12 -14 4 6 -7 12 -16 12 -21 0
-10 -33 3 -42 16 -5 7 -8 3 -8 -9 0 -15 -3 -17 -9 -7 -4 8 -12 14 -16 14 -4 0
-12 -6 -16 -14 -7 -10 -9 -10 -9 2 0 13 -1 13 -10 0 -9 -13 -10 -13 -10 0 0
13 -1 13 -10 0 -6 -10 -10 -11 -10 -2 0 6 -5 12 -11 12 -5 0 -7 -5 -4 -11 8
-13 -37 12 -47 26 -4 5 -10 6 -14 2 -4 -4 -16 1 -27 10 -11 10 -17 12 -13 6 4
-8 1 -13 -8 -13 -9 0 -16 6 -16 13 0 8 -4 7 -10 -3 -7 -11 -10 -11 -10 -2 0
10 -5 10 -20 2 -15 -8 -20 -8 -20 2 0 9 -3 9 -10 -2 -9 -13 -10 -13 -10 0 -1
12 -3 11 -11 -3 -7 -12 -17 -16 -30 -12 -11 4 -19 2 -19 -5 0 -7 -7 -10 -15
-6 -10 3 -15 -1 -16 -12 0 -10 -3 -12 -6 -4 -2 6 -9 10 -14 6 -5 -3 -9 3 -9
13 0 14 -2 15 -9 4 -6 -9 -15 -11 -27 -6 -11 5 -22 9 -26 10 -5 2 -11 4 -15 5
-5 1 -11 2 -15 1 -5 0 -8 7 -8 17 0 14 -2 15 -10 2 -8 -13 -13 -9 -12 10 0 3
-15 6 -34 7 -20 1 -34 -3 -34 -10 0 -8 -3 -7 -9 2 -7 11 -10 9 -15 -7z"/>
<path d="M2015 5060 c-3 -5 -1 -10 4 -10 6 0 11 5 11 10 0 6 -2 10 -4 10 -3 0
-8 -4 -11 -10z"/>
<path d="M3295 4761 c-3 -5 -2 -12 3 -15 5 -3 9 1 9 9 0 17 -3 19 -12 6z"/>
<path d="M3550 4620 c0 -5 5 -10 11 -10 5 0 7 5 4 10 -3 6 -8 10 -11 10 -2 0
-4 -4 -4 -10z"/>
<path d="M1175 4420 c3 -5 8 -10 11 -10 2 0 4 5 4 10 0 6 -5 10 -11 10 -5 0
-7 -4 -4 -10z"/>
<path d="M1113 4055 c0 -8 4 -12 9 -9 5 3 6 10 3 15 -9 13 -12 11 -12 -6z"/>
<path d="M3988 3893 c7 -3 16 -2 19 1 4 3 -2 6 -13 5 -11 0 -14 -3 -6 -6z"/>
<path d="M1115 3011 c-3 -5 -2 -12 3 -15 5 -3 9 1 9 9 0 17 -3 19 -12 6z"/>
<path d="M1079 2953 c-12 -16 -12 -17 2 -6 9 7 20 9 24 5 5 -4 5 -1 1 6 -9 16
-11 15 -27 -5z"/>
<path d="M4176 2338 c3 -4 11 -5 19 -1 21 7 19 12 -4 10 -11 0 -18 -5 -15 -9z"/>
<path d="M4175 2301 c-3 -5 -2 -12 3 -15 5 -3 9 1 9 9 0 17 -3 19 -12 6z"/>
<path d="M4150 2280 c0 -5 5 -10 11 -10 5 0 7 5 4 10 -3 6 -8 10 -11 10 -2 0
-4 -4 -4 -10z"/>
<path d="M673 1965 c0 -8 4 -12 9 -9 5 3 6 10 3 15 -9 13 -12 11 -12 -6z"/>
<path d="M713 1885 c0 -8 4 -12 9 -9 5 3 6 10 3 15 -9 13 -12 11 -12 -6z"/>
<path d="M717 1708 c19 -21 31 -25 14 -5 -6 8 -9 16 -6 19 3 2 -2 5 -10 5 -13
0 -13 -3 2 -19z"/>
<path d="M4374 1416 c1 -8 5 -18 8 -22 4 -3 5 1 4 10 -1 8 -5 18 -8 22 -4 3
-5 -1 -4 -10z"/>
<path d="M4350 890 c-9 -6 -10 -10 -3 -10 6 0 15 5 18 10 8 12 4 12 -15 0z"/>
<path d="M4560 306 c0 -2 7 -7 16 -10 8 -3 12 -2 9 4 -6 10 -25 14 -25 6z"/>
</g>
</svg>
